<svg width="390" height="844" viewBox="0 0 390 844" fill="none" xmlns="http://www.w3.org/2000/svg">
  <!-- Background -->
  <rect width="390" height="844" fill="#F5F5F5"/>

  <!-- Title -->
  <text x="20" y="60" font-family="SF Pro Display, -apple-system" font-size="32" font-weight="700" fill="#212121">Card-Based Material</text>
  <text x="20" y="85" font-family="SF Pro Text, -apple-system" font-size="14" fill="#757575">Elevated cards, bold shadows, material depth</text>

  <!-- Input Fields Section -->
  <text x="20" y="130" font-family="SF Pro Text, -apple-system" font-size="13" font-weight="600" fill="#9E9E9E">INPUT FIELDS</text>

  <!-- Amount Input Card -->
  <g filter="url(#shadow1)">
    <rect x="20" y="145" width="350" height="72" rx="8" fill="white"/>
  </g>
  <text x="32" y="165" font-family="SF Pro Text, -apple-system" font-size="12" font-weight="600" fill="#1976D2">AMOUNT</text>
  <text x="32" y="198" font-family="SF Pro Display, -apple-system" font-size="32" font-weight="600" fill="#212121">$1,250.00</text>
  <rect x="32" y="204" width="100" height="2" fill="#1976D2"/>

  <!-- Description Input Card -->
  <g filter="url(#shadow1)">
    <rect x="20" y="232" width="350" height="60" rx="8" fill="white"/>
  </g>
  <text x="32" y="252" font-family="SF Pro Text, -apple-system" font-size="12" font-weight="600" fill="#1976D2">DESCRIPTION</text>
  <text x="32" y="277" font-family="SF Pro Text, -apple-system" font-size="16" fill="#212121">Grocery shopping</text>
  <rect x="32" y="282" width="150" height="2" fill="#1976D2"/>

  <!-- List Display Section -->
  <text x="20" y="335" font-family="SF Pro Text, -apple-system" font-size="13" font-weight="600" fill="#9E9E9E">LIST ITEMS</text>

  <!-- Transaction Item 1 (Expense) -->
  <g filter="url(#shadow2)">
    <rect x="20" y="350" width="350" height="80" rx="8" fill="white"/>
  </g>
  <rect x="20" y="350" width="6" height="80" rx="8 0 0 8" fill="#D32F2F"/>
  <rect x="32" y="368" width="40" height="40" rx="20" fill="#FFEBEE"/>
  <text x="52" y="396" font-family="SF Pro Text, -apple-system" font-size="20" text-anchor="middle" fill="#D32F2F">🛒</text>
  <text x="84" y="382" font-family="SF Pro Text, -apple-system" font-size="17" font-weight="600" fill="#212121">Whole Foods</text>
  <text x="84" y="403" font-family="SF Pro Text, -apple-system" font-size="14" fill="#757575">Groceries</text>
  <rect x="84" y="407" width="50" height="16" rx="8" fill="#FFF3E0"/>
  <text x="109" y="418" font-family="SF Pro Text, -apple-system" font-size="10" font-weight="600" fill="#F57C00" text-anchor="middle">NOV 14</text>
  <text x="340" y="392" font-family="SF Pro Display, -apple-system" font-size="22" font-weight="700" fill="#D32F2F" text-anchor="end">-$127.43</text>

  <!-- Transaction Item 2 (Income) -->
  <g filter="url(#shadow2)">
    <rect x="20" y="445" width="350" height="80" rx="8" fill="white"/>
  </g>
  <rect x="20" y="445" width="6" height="80" rx="8 0 0 8" fill="#388E3C"/>
  <rect x="32" y="463" width="40" height="40" rx="20" fill="#E8F5E9"/>
  <text x="52" y="491" font-family="SF Pro Text, -apple-system" font-size="20" text-anchor="middle" fill="#388E3C">💰</text>
  <text x="84" y="477" font-family="SF Pro Text, -apple-system" font-size="17" font-weight="600" fill="#212121">Paycheck</text>
  <text x="84" y="498" font-family="SF Pro Text, -apple-system" font-size="14" fill="#757575">Income</text>
  <rect x="84" y="502" width="50" height="16" rx="8" fill="#E3F2FD"/>
  <text x="109" y="513" font-family="SF Pro Text, -apple-system" font-size="10" font-weight="600" fill="#1976D2" text-anchor="middle">NOV 13</text>
  <text x="340" y="487" font-family="SF Pro Display, -apple-system" font-size="22" font-weight="700" fill="#388E3C" text-anchor="end">+$3,200.00</text>

  <!-- Category Budget Item -->
  <g filter="url(#shadow2)">
    <rect x="20" y="540" width="350" height="90" rx="8" fill="white"/>
  </g>
  <text x="32" y="565" font-family="SF Pro Text, -apple-system" font-size="18" font-weight="700" fill="#212121">Groceries</text>
  <text x="32" y="586" font-family="SF Pro Text, -apple-system" font-size="14" fill="#757575">$450 spent of $600 budgeted</text>
  <rect x="340" y="552" width="18" height="18" rx="9" fill="#FF6F00" text-anchor="end"/>
  <text x="340" y="580" font-family="SF Pro Display, -apple-system" font-size="20" font-weight="700" fill="#FF6F00" text-anchor="end">$150</text>
  <text x="340" y="597" font-family="SF Pro Text, -apple-system" font-size="11" font-weight="600" fill="#9E9E9E" text-anchor="end">REMAINING</text>
  <!-- Progress bar with depth -->
  <rect x="32" y="605" width="326" height="10" rx="5" fill="#EEEEEE"/>
  <rect x="32" y="605" width="245" height="10" rx="5" fill="#FF6F00"/>
  <circle cx="277" cy="610" r="5" fill="#F57C00"/>

  <!-- Key Features -->
  <g filter="url(#shadow1)">
    <rect x="20" y="665" width="350" height="150" rx="8" fill="white"/>
  </g>
  <rect x="20" y="665" width="350" height="4" rx="8 8 0 0" fill="#1976D2"/>
  <text x="32" y="695" font-family="SF Pro Text, -apple-system" font-size="15" font-weight="700" fill="#212121">Key Features</text>
  <text x="32" y="720" font-family="SF Pro Text, -apple-system" font-size="14" fill="#424242">• Elevated cards with drop shadows</text>
  <text x="32" y="742" font-family="SF Pro Text, -apple-system" font-size="14" fill="#424242">• Colored accent bars on list items</text>
  <text x="32" y="764" font-family="SF Pro Text, -apple-system" font-size="14" fill="#424242">• Bold typography (600-700 weight)</text>
  <text x="32" y="786" font-family="SF Pro Text, -apple-system" font-size="14" fill="#424242">• Emoji icons with colored backgrounds</text>
  <text x="32" y="808" font-family="SF Pro Text, -apple-system" font-size="14" fill="#424242">• Material design color palette</text>

  <!-- Shadows -->
  <defs>
    <filter id="shadow1" x="-20" y="-20" width="500" height="500">
      <feGaussianBlur in="SourceAlpha" stdDeviation="3"/>
      <feOffset dx="0" dy="2" result="offsetblur"/>
      <feComponentTransfer>
        <feFuncA type="linear" slope="0.15"/>
      </feComponentTransfer>
      <feMerge>
        <feMergeNode/>
        <feMergeNode in="SourceGraphic"/>
      </feMerge>
    </filter>
    <filter id="shadow2" x="-20" y="-20" width="500" height="500">
      <feGaussianBlur in="SourceAlpha" stdDeviation="4"/>
      <feOffset dx="0" dy="3" result="offsetblur"/>
      <feComponentTransfer>
        <feFuncA type="linear" slope="0.2"/>
      </feComponentTransfer>
      <feMerge>
        <feMergeNode/>
        <feMergeNode in="SourceGraphic"/>
      </feMerge>
    </filter>
  </defs>
</svg>
